:SAMPLES-PER-SECOND 30
:FULLY-SPECIFIED
:DEGREES
639
root  -34.693 34.8641 5.75319 -169.807 31.5029 -179.154
RightUpLeg  -14.0338 -25.6278 5.80309
RightLeg  8.1496 -10.7581 -0.831529
RightFoot  3.44618 0.0356975 -0.428205
RightToes  -16.3924 -0.0617061 -0.144801
Spine  -1.67568 0.379618 0.377991
Spine1  -3.32653 0.89678 1.50299
HEad  -78.4197 -0.667043 12.9366
LeftShoulder1  -1.94126e-019 -3.10601e-018 -2.51263e-017
LeftArm  15.5051 28.9992 -71.9307
LeftForeArm  122.891 -73.5548 -139.292
LeftHand  0.332534 -1.60942 -5.57576
RightShoulder  -4.96962e-017 0 -2.36833e-017
RightArm  20.0214 -22.3439 68.9542
RightForeArm  142.76 80.2709 115.101
RightHand  -0.0464042 3.80865 -0.847116
LeftUpLeg  -5.78233 -2.57495 -0.321329
LeftLeg  7.2468 15.8955 0.976575
LeftFoot  -0.8278 -0.00166153 -0.0684784
LeftToes  -11.269 1.49739e-006 1.00523e-007
640
root  -34.4101 34.8583 5.77489 -169.517 31.51 -178.751
RightUpLeg  -13.1183 -26.0889 6.53173
RightLeg  6.55447 -10.204 -0.505533
RightFoot  3.66425 0.0364359 -0.436854
RightToes  -16.1164 -0.0601985 -0.142498
Spine  -1.70393 0.333334 0.580949
Spine1  -3.37519 0.804629 1.9136
HEad  -78.2146 -2.02237 12.9996
LeftShoulder1  -1.94126e-019 -3.10601e-018 -2.51263e-017
LeftArm  15.6259 28.8018 -72.3552
LeftForeArm  123.548 -73.57 -139.365
LeftHand  0.327495 -1.70701 -5.3161
RightShoulder  -4.96962e-017 0 -2.36833e-017
RightArm  20.0296 -22.3132 68.6438
RightForeArm  143.099 80.2238 115.594
RightHand  -0.0430329 3.82873 -0.80418
LeftUpLeg  -6.41482 -1.88555 0.456283
LeftLeg  8.83105 15.195 1.35182
LeftFoot  -1.46079 -0.00500292 -0.230895
LeftToes  -12.1643 1.49739e-006 1.00523e-007
641
root  -34.1107 34.8373 5.79168 -169.248 31.7909 -178.164
RightUpLeg  -12.0508 -26.1864 7.31462
RightLeg  4.99099 -9.70282 -0.217245
RightFoot  3.9258 0.0377675 -0.452332
RightToes  -15.7186 -0.0588994 -0.140501
Spine  -1.73489 0.322237 0.831154
Spine1  -3.42798 0.786154 2.41729
HEad  -77.6833 -4.91444 12.6598
LeftShoulder1  -1.94126e-019 -3.10601e-018 -2.51263e-017
LeftArm  15.4898 28.7391 -72.8408
LeftForeArm  123.553 -73.5339 -139.458
LeftHand  0.32999 -1.64224 -5.464
RightShoulder  -4.96962e-017 0 -2.36833e-017
RightArm  20.1046 -22.2528 68.3254
RightForeArm  143.561 80.1812 116.09
RightHand  -0.0420038 3.93322 -0.789347
LeftUpLeg  -7.06652 -0.679434 1.38974
LeftLeg  10.8085 14.2579 1.76227
LeftFoot  -2.28631 -0.0115641 -0.41798
LeftToes  -13.4509 1.49739e-006 1.00523e-007
642
root  -33.8031 34.8001 5.79407 -169.111 32.3562 -177.555
RightUpLeg  -11.0077 -26.3139 8.00642
RightLeg  3.87241 -8.90943 -0.0265589
RightFoot  3.99737 0.0353996 -0.413263
RightToes  -15.4105 -0.0577279 -0.138937
Spine  -1.75609 0.32532 1.07626
Spine1  -3.46383 0.794703 2.91064
HEad  -77.0367 -8.977 12.0335
LeftShoulder1  -1.94126e-019 -3.10601e-018 -2.51263e-017
LeftArm  15.466 28.8299 -73.2198
LeftForeArm  124.35 -73.5086 -139.66
LeftHand  0.325806 -1.85387 -5.23793
RightShoulder  -4.96962e-017 0 -2.36833e-017
RightArm  20.2531 -22.0826 68.0572
RightForeArm  143.601 80.154 116.309
RightHand  -0.0328067 3.95416 -0.674754
LeftUpLeg  -7.62304 0.754859 2.31327
LeftLeg  13.0481 13.3307 2.17618
LeftFoot  -3.24579 -0.0219085 -0.611714
LeftToes  -14.458 1.49739e-006 1.00523e-007
643
root  -33.4892 34.7481 5.79209 -168.965 33.2518 -176.867
RightUpLeg  -10.0819 -26.1691 8.6847
RightLeg  3.14817 -8.08755 0.0775979
RightFoot  3.93835 0.031602 -0.352091
RightToes  -15.16 -0.0565827 -0.137558
Spine  -1.78411 0.296243 1.32567
Spine1  -3.51418 0.737648 3.41451
HEad  -76.0449 -13.2597 11.1799
LeftShoulder1  -1.94126e-019 -3.10601e-018 -2.51263e-017
LeftArm  15.0902 29.1761 -73.5821
LeftForeArm  125.272 -73.4641 -139.932
LeftHand  0.32427 -1.95613 -5.14816
RightShoulder  -4.96962e-017 0 -2.36833e-017
RightArm  20.4804 -21.7527 67.8696
RightForeArm  143.573 80.1163 116.577
RightHand  -0.00715551 4.02542 -0.358217
LeftUpLeg  -8.11699 2.70156 3.28756
LeftLeg  15.3984 12.2454 2.51652
LeftFoot  -4.25515 -0.0347922 -0.774966
LeftToes  -15.5053 1.49739e-006 1.00523e-007
644
root  -33.1976 34.6891 5.79028 -168.797 34.4412 -176.242
RightUpLeg  -9.40237 -26.0025 9.27576
RightLeg  2.80563 -7.05791 0.109756
RightFoot  3.67921 0.0261855 -0.254691
RightToes  -14.8312 -0.0555082 -0.136109
Spine  -1.82527 0.230343 1.52948
Spine1  -3.59413 0.60521 3.82892
HEad  -74.944 -16.942 10.2419
LeftShoulder1  -1.94126e-019 -3.10601e-018 -2.51263e-017
LeftArm  14.6251 29.6244 -73.8341
LeftForeArm  125.34 -73.4784 -139.907
LeftHand  0.322047 -1.98819 -4.99883
RightShoulder  -4.96962e-017 0 -2.36833e-017
RightArm  20.7555 -21.3942 67.8206
RightForeArm  144.1 80.0866 116.981
RightHand  0.0107874 3.75125 -0.122279
LeftUpLeg  -8.64404 4.7436 4.15403
LeftLeg  17.8253 11.3165 2.82831
LeftFoot  -5.21984 -0.0487722 -0.908389
LeftToes  -16.2408 1.49739e-006 1.00523e-007
645
root  -32.9152 34.6361 5.79334 -168.506 35.8685 -175.481
RightUpLeg  -8.68789 -25.5188 9.9132
RightLeg  2.37496 -6.10288 0.14066
RightFoot  3.59138 0.0232974 -0.189676
RightToes  -14.5488 -0.054549 -0.134713
Spine  -1.84054 0.181 1.72079
Spine1  -3.62208 0.503995 4.21815
HEad  -74.1102 -20.0134 9.48119
LeftShoulder1  -1.94126e-019 -3.10601e-018 -2.51263e-017
LeftArm  14.138 29.9461 -74.0858
LeftForeArm  124.75 -73.5562 -139.606
LeftHand  0.322664 -1.96191 -5.019
RightShoulder  -4.96962e-017 0 -2.36833e-017
RightArm  20.8438 -21.1472 67.8121
RightForeArm  144.916 80.0648 117.423
RightHand  0.000262348 3.83591 -0.259352
LeftUpLeg  -9.10906 6.86542 5.09454
LeftLeg  20.1636 10.636 3.12283
LeftFoot  -5.8707 -0.0585415 -0.98011
LeftToes  -17.2346 1.49739e-006 1.00523e-007
